<svg width="159" height="35" viewBox="0 0 159 35" fill="none" xmlns="http://www.w3.org/2000/svg">
<path d="M30.4684 0H4.35218C3.78064 0 3.2147 0.112572 2.68667 0.33129C2.15864 0.550007 1.67886 0.870586 1.27472 1.27472C0.458532 2.09091 0 3.19791 0 4.35218V30.4715C0 31.6258 0.458532 32.7328 1.27472 33.5489C1.67886 33.9531 2.15864 34.2737 2.68667 34.4924C3.2147 34.7111 3.78064 34.8237 4.35218 34.8237H30.4684C31.6214 34.822 32.7266 34.3627 33.5412 33.5466C34.3558 32.7306 34.8131 31.6245 34.8127 30.4715V4.35218C34.8131 3.19913 34.3558 2.09308 33.5412 1.27702C32.7266 0.460968 31.6214 0.00165541 30.4684 0Z" fill="url(#paint0_linear_1_269)"/>
<path d="M17.4087 17.4118H26.1146V26.1178H8.70436V8.70592H17.4087V17.4118Z" fill="#131313"/>
<path d="M30.4668 4.35218H21.7624V13.0581H30.4668V4.35218Z" fill="#131313"/>
<path d="M26.1146 17.4118L21.7617 21.7648L17.4087 26.1178H8.70436V17.4118L17.4087 8.71685V17.4118H26.1146Z" fill="url(#paint1_linear_1_269)"/>
<path d="M43.6181 27.8637L43.6113 8.27242H45.7836H47.9558L47.9626 24.2829H56.7721V27.8637H43.6181Z" fill="#F0F0F0"/>
<path d="M66.3098 28.1646C64.7245 28.1646 63.3599 27.8436 62.2161 27.2017C61.079 26.5531 60.2027 25.637 59.5873 24.4534C58.9719 23.2632 58.6643 21.8556 58.6643 20.2307C58.6643 18.6459 58.9719 17.2551 59.5873 16.0581C60.2027 14.8612 61.069 13.9284 62.186 13.2597C63.3098 12.591 64.6275 12.2567 66.1392 12.2567C67.156 12.2567 68.1024 12.4205 68.9787 12.7481C69.8617 13.0691 70.6309 13.5539 71.2864 14.2025C71.9486 14.8511 72.4637 15.6669 72.8316 16.6499C73.1995 17.6262 73.3834 18.7696 73.3834 20.0802V21.2538H60.37V18.6058H69.36C69.36 17.9906 69.2262 17.4456 68.9586 16.9709C68.6911 16.4961 68.3198 16.125 67.8449 15.8575C67.3767 15.5834 66.8315 15.4463 66.2095 15.4463C65.5606 15.4463 64.9854 15.5967 64.4837 15.8976C63.9887 16.1919 63.6007 16.5897 63.3198 17.0912C63.0389 17.5861 62.8951 18.1377 62.8884 18.7462V21.2638C62.8884 22.0261 63.0288 22.6848 63.3098 23.2398C63.5974 23.7948 64.0021 24.2227 64.5238 24.5236C65.0456 24.8245 65.6643 24.975 66.38 24.975C66.8549 24.975 67.2897 24.9081 67.6844 24.7744C68.079 24.6406 68.4168 24.44 68.6978 24.1726C68.9787 23.9051 69.1928 23.5774 69.3399 23.1896L73.2931 23.4504C73.0924 24.3999 72.6811 25.2291 72.059 25.9379C71.4436 26.64 70.6476 27.1883 69.671 27.5828C68.7011 27.9707 67.5807 28.1646 66.3098 28.1646Z" fill="#F0F0F0"/>
<path d="M80.2849 28.1546C79.3016 28.1546 78.4253 27.9841 77.6561 27.643C76.8869 27.2953 76.2781 26.7838 75.83 26.1084C75.3885 25.4263 75.1678 24.5771 75.1678 23.5607C75.1678 22.7048 75.325 21.986 75.6393 21.4042C75.9537 20.8225 76.3818 20.3544 76.9236 20C77.4654 19.6456 78.0808 19.3781 78.7698 19.1976C79.4655 19.017 80.1946 18.89 80.9571 18.8164C81.8534 18.7228 82.5759 18.6359 83.1243 18.5556C83.6728 18.4687 84.0708 18.3417 84.3183 18.1745C84.5658 18.0073 84.6896 17.7599 84.6896 17.4323V17.3721C84.6896 16.7368 84.4889 16.2453 84.0876 15.8976C83.6929 15.5499 83.0935 15.4255 82.4019 15.3761C81.0647 15.2804 80.3809 15.9759 79.2514 16.6499C78.3865 17.166 77.2265 18.2138 77.2265 18.2138L75.1678 15.6892C75.1678 15.6892 76.0852 14.7188 76.7722 14.1999C77.6278 13.5537 78.2414 13.1861 79.1711 12.8184C80.1076 12.4439 81.1912 12.2567 82.422 12.2567C83.2782 12.2567 84.0976 12.357 84.8802 12.5576C85.6695 12.7582 86.3685 13.0691 86.9772 13.4904C87.5926 13.9116 88.0776 14.4533 88.4321 15.1153C88.7866 15.7706 88.9639 16.5563 88.9639 17.4724V27.8637H84.9103V25.7273H84.7899C84.5424 26.2087 84.2113 26.6333 83.7966 27.0011C83.3819 27.3622 82.8835 27.6464 82.3016 27.8537C81.7197 28.0543 81.0474 28.1546 80.2849 28.1546ZM81.509 25.2057C82.1377 25.2057 82.6929 25.082 83.1745 24.8346C83.6561 24.5805 84.0341 24.2394 84.3083 23.8115C84.5826 23.3835 84.7197 22.8987 84.7197 22.3571V20.7222C84.5859 20.8091 84.402 20.8893 84.1678 20.9629C83.9404 21.0298 83.6829 21.0933 83.3953 21.1535C83.1076 21.207 82.82 21.2571 82.5324 21.3039C82.2447 21.344 81.9839 21.3808 81.7498 21.4143C81.2481 21.4878 80.81 21.6048 80.4354 21.7653C80.0608 21.9258 79.7698 22.1431 79.5625 22.4173C79.3551 22.6848 79.2514 23.0191 79.2514 23.4203C79.2514 24.0021 79.4621 24.4467 79.8835 24.7543C80.3116 25.0552 80.8534 25.2057 81.509 25.2057Z" fill="#F0F0F0"/>
<path d="M97.6764 28.1145C96.5058 28.1145 95.4456 27.8135 94.4957 27.2117C93.5526 26.6032 92.8034 25.7105 92.2482 24.5337C91.6997 23.3501 91.4255 21.8991 91.4255 20.1805C91.4255 18.4152 91.7098 16.9475 92.2783 15.7773C92.8469 14.6004 93.6027 13.7211 94.5459 13.1393C95.4957 12.5509 96.5359 12.2567 97.6663 12.2567C98.5292 12.2567 99.2483 12.4038 99.8235 12.698C100.405 12.9855 100.874 13.3466 101.228 13.7813C101.589 14.2092 101.864 14.6305 102.051 15.0451H102.182V7.32179H106.446V27.8637H102.232V25.3963H102.051C101.85 25.8242 101.566 26.2488 101.198 26.6701C100.837 27.0847 100.365 27.4291 99.7834 27.7032C99.2081 27.9774 98.5058 28.1145 97.6764 28.1145ZM99.0309 24.7142C99.7198 24.7142 100.302 24.527 100.777 24.1525C101.258 23.7714 101.626 23.2398 101.881 22.5577C102.141 21.8756 102.272 21.0766 102.272 20.1605C102.272 19.2444 102.145 18.4487 101.891 17.7733C101.636 17.0979 101.268 16.5763 100.787 16.2086C100.305 15.8408 99.7198 15.6569 99.0309 15.6569C98.3285 15.6569 97.7366 15.8475 97.2549 16.2286C96.7733 16.6098 96.4088 17.138 96.1613 17.8134C95.9138 18.4888 95.7901 19.2711 95.7901 20.1605C95.7901 21.0565 95.9138 21.8489 96.1613 22.5376C96.4155 23.2197 96.78 23.7546 97.2549 24.1425C97.7366 24.5236 98.3285 24.7142 99.0309 24.7142Z" fill="#F0F0F0"/>
<path d="M109.677 27.8637V12.4573H113.952V27.8637H109.677ZM111.825 10.4713C111.189 10.4713 109.677 10.4713 109.677 10.4713C109.677 10.4713 109.677 8.89988 109.677 8.30475C109.677 7.71631 109.677 6.57826 109.677 6.57826C109.677 6.57826 111.189 6.57885 111.825 6.57885C112.46 6.57885 113.952 6.57885 113.952 6.57885C113.952 6.57885 113.952 7.7169 113.952 8.30534C113.952 8.90047 113.952 10.4719 113.952 10.4719C113.952 10.4719 112.46 10.4713 111.825 10.4713Z" fill="#F0F0F0"/>
<path d="M121.367 18.9569V27.8637H117.093V12.4573H121.167V15.1755H121.347C121.688 14.2794 122.26 13.5706 123.063 13.049C123.866 12.5208 124.839 12.2567 125.983 12.2567C127.053 12.2567 127.986 12.4907 128.782 12.9588C129.578 13.4269 130.197 14.0955 130.638 14.9648C131.08 15.8274 131.301 16.8572 131.301 18.0541V27.8637H127.026V18.8164C127.033 17.8736 126.792 17.138 126.304 16.6098C125.816 16.0748 125.143 15.8074 124.287 15.8074C123.712 15.8074 123.204 15.9311 122.762 16.1785C122.327 16.4259 121.986 16.787 121.739 17.2617C121.498 17.7298 121.374 18.2949 121.367 18.9569Z" fill="#F0F0F0"/>
<path d="M142.674 12.4573V15.6669H133.163V12.4573H142.674ZM135.34 27.8637V11.3439C135.34 10.2272 135.557 9.30109 135.992 8.56554C136.434 7.82999 137.036 7.27832 137.798 6.91055C138.561 6.54277 139.427 6.35889 140.397 6.35889C141.052 6.35889 141.651 6.40904 142.193 6.50934C142.741 6.60964 143.149 6.69992 143.417 6.78016L142.654 9.98983C142.487 9.93633 142.28 9.88618 142.032 9.83938C141.792 9.79257 141.544 9.76917 141.29 9.76917C140.661 9.76917 140.223 9.91628 139.975 10.2105C139.728 10.498 139.604 10.9026 139.604 11.4242V27.8637H135.34Z" fill="#F0F0F0"/>
<path d="M151.415 28.1646C149.856 28.1646 148.508 27.8336 147.371 27.1716C146.241 26.5029 145.368 25.5735 144.752 24.3832C144.137 23.1863 143.829 21.7988 143.829 20.2207C143.829 18.6292 144.137 17.2383 144.752 16.0481C145.368 14.8511 146.241 13.9217 147.371 13.2597C148.508 12.591 149.856 12.2567 151.415 12.2567C152.973 12.2567 154.318 12.591 155.448 13.2597C156.585 13.9217 157.461 14.8511 158.077 16.0481C158.692 17.2383 159 18.6292 159 20.2207C159 21.7988 158.692 23.1863 158.077 24.3832C157.461 25.5735 156.585 26.5029 155.448 27.1716C154.318 27.8336 152.973 28.1646 151.415 28.1646ZM151.435 24.8546C152.144 24.8546 152.736 24.654 153.211 24.2528C153.685 23.8449 154.043 23.2899 154.284 22.5878C154.532 21.8857 154.655 21.0866 154.655 20.1906C154.655 19.2945 154.532 18.4955 154.284 17.7933C154.043 17.0912 153.685 16.5362 153.211 16.1283C152.736 15.7204 152.144 15.5165 151.435 15.5165C150.719 15.5165 150.117 15.7204 149.629 16.1283C149.147 16.5362 148.782 17.0912 148.535 17.7933C148.294 18.4955 148.174 19.2945 148.174 20.1906C148.174 21.0866 148.294 21.8857 148.535 22.5878C148.782 23.2899 149.147 23.8449 149.629 24.2528C150.117 24.654 150.719 24.8546 151.435 24.8546Z" fill="#F0F0F0"/>
<defs>
<linearGradient id="paint0_linear_1_269" x1="33.3714" y1="1.45072" x2="1.25396" y2="33.5666" gradientUnits="userSpaceOnUse">
<stop stop-color="white"/>
<stop offset="1" stop-color="white"/>
</linearGradient>
<linearGradient id="paint1_linear_1_269" x1="26.7442" y1="8.05666" x2="0.180343" y2="34.5948" gradientUnits="userSpaceOnUse">
<stop/>
<stop offset="1" stop-color="white"/>
</linearGradient>
</defs>
</svg>
