<svg width="147" height="36" viewBox="0 0 147 36" fill="none" xmlns="http://www.w3.org/2000/svg">
<path d="M17.7502 35.5003C27.5533 35.5003 35.5003 27.5533 35.5003 17.7502C35.5003 7.94702 27.5533 0 17.7502 0C7.94702 0 0 7.94702 0 17.7502C0 27.5533 7.94702 35.5003 17.7502 35.5003Z" fill="#F0F0F0"/>
<path d="M9.28314 20.8105C8.9771 20.8105 8.77308 20.6065 8.77308 20.4025C8.67106 20.3005 8.67106 19.9944 8.87509 19.7904L19.6884 8.9771C19.9944 8.67106 19.9944 8.26301 19.7904 7.95697L18.5663 6.22276C18.3622 6.12075 18.2602 6.01874 17.9542 5.91672C17.6482 5.81471 17.5461 6.01874 17.3421 6.12075L6.32477 17.2401C5.10062 18.4643 4.79459 20.3005 5.40666 21.8307C6.12075 23.4629 7.65094 24.483 9.28314 24.483H24.0749C24.177 24.483 24.381 24.381 24.381 24.279C24.381 24.177 24.483 23.9729 24.381 23.8709L22.5448 21.4226C22.3407 21.1166 21.9327 20.9126 21.5246 20.9126H9.28314V20.8105Z" fill="#131313"/>
<path d="M20.7085 16.016C20.8105 15.9139 20.9126 15.9139 21.0146 15.9139C21.1166 15.9139 21.2186 16.016 21.2186 16.016L27.0333 23.9729C27.2373 24.279 27.6454 24.483 28.0534 24.483H31.1138C31.2158 24.483 31.4198 24.381 31.4198 24.279C31.5219 24.177 31.5219 23.9729 31.4198 23.8709L24.0749 13.8737C23.3609 12.9556 22.3407 12.3435 21.2186 12.2415C20.0965 12.1395 18.9743 12.5475 18.1582 13.3636L13.4656 18.0562C13.2616 18.2602 13.2616 18.4643 13.2616 18.5663C13.3636 18.6683 13.4656 18.7703 13.6697 18.7703H17.3421C17.6482 18.7703 17.9542 18.6683 18.1582 18.4643L20.7085 16.016Z" fill="#131313"/>
<path d="M147 9.89521C147 10.8133 146.286 11.6294 145.266 11.6294C144.348 11.6294 143.532 10.8133 143.532 9.89521C143.532 8.9771 144.246 8.161 145.266 8.161C146.184 8.161 147 8.9771 147 9.89521ZM146.694 9.89521C146.694 9.07911 146.082 8.46704 145.266 8.46704C144.45 8.46704 143.838 9.07911 143.838 9.89521C143.838 10.7113 144.45 11.3234 145.266 11.3234C146.082 11.3234 146.694 10.6093 146.694 9.89521ZM145.674 10.0992L146.082 10.7113H145.776L145.47 10.2012H144.96V10.7113H144.654V8.9771H145.368C145.776 8.9771 146.082 9.18112 146.082 9.58917C145.98 9.7932 145.878 9.99722 145.674 10.0992ZM145.266 9.89521C145.572 9.89521 145.674 9.7932 145.674 9.58917C145.674 9.38515 145.47 9.28314 145.266 9.28314H144.858V9.99722H145.266V9.89521Z" fill="#F0F0F0"/>
<path d="M48.0479 23.0548L54.4747 12.9556C54.9847 12.1395 56.0049 11.7314 57.025 12.0375C57.9431 12.3435 58.6572 13.1596 58.6572 14.1797V23.0548H62.3296V14.1797C62.3296 11.5274 60.5954 9.18112 58.0451 8.46704C55.4948 7.75295 52.7405 8.77307 51.3123 11.0173L43.6613 23.1568H48.0479V23.0548Z" fill="#F0F0F0"/>
<path d="M70.4906 23.0548H66.8182V3.16239H70.4906V23.0548Z" fill="#F0F0F0"/>
<path d="M81.406 23.3609C77.3255 23.3609 74.9792 20.7085 74.9792 16.9341V8.56905H78.6516V17.0361C78.6516 17.8522 78.9577 19.7904 81.406 19.7904C83.0382 19.7904 84.2623 18.6683 84.2623 17.0361V8.56905H87.9348V16.9341C87.9348 20.6065 85.2824 23.3609 81.406 23.3609Z" fill="#F0F0F0"/>
<path d="M114.56 23.0548H110.888V14.5878C110.888 13.7717 110.582 11.8334 108.133 11.8334C106.501 11.8334 105.277 12.9556 105.277 14.5878V23.0548H101.604V14.5878C101.604 13.7717 101.4 11.8334 98.9521 11.8334C97.3199 11.8334 96.0958 12.9556 96.0958 14.5878V23.0548H92.4233V14.6898C92.4233 11.0173 94.9736 8.26301 98.9521 8.26301C100.89 8.26301 102.523 9.07911 103.543 10.3033C104.665 9.07911 106.297 8.26301 108.133 8.26301C112.214 8.26301 114.56 10.9153 114.56 14.6898V23.0548Z" fill="#F0F0F0"/>
<path d="M122.721 23.0548H119.049V8.56905H122.721V23.0548Z" fill="#F0F0F0"/>
<path d="M120.885 7.03886C122.012 7.03886 122.925 6.12541 122.925 4.99861C122.925 3.87181 122.012 2.95836 120.885 2.95836C119.758 2.95836 118.845 3.87181 118.845 4.99861C118.845 6.12541 119.758 7.03886 120.885 7.03886Z" fill="#F0F0F0"/>
<path d="M141.185 15.8119C141.185 20.0965 137.921 23.3609 133.84 23.3609C129.76 23.3609 126.598 20.0965 126.598 15.8119C126.598 11.5274 129.862 8.161 133.84 8.161C137.819 8.161 141.185 11.4254 141.185 15.8119ZM137.411 15.8119C137.411 13.2616 135.779 11.5274 133.84 11.5274C131.902 11.5274 130.27 13.2616 130.27 15.8119C130.27 18.2602 131.902 19.9944 133.84 19.9944C135.779 19.9944 137.411 18.2602 137.411 15.8119Z" fill="#F0F0F0"/>
</svg>
